<svg xmlns="http://www.w3.org/2000/svg" width="16" height="16" viewBox="0 0 16 16"><g fill="none" fill-rule="evenodd"><rect width="16" height="16" fill="#00C8CD"/><path fill="#FFF" fill-rule="nonzero" d="M11.379,11.121 C9.346,11.121 6.362,4.021 6.362,1.659 C6.362,0.789 6.569,0.499 6.859,0.249 C4.373,0.54 1.39,1.452 0.435,2.613 C0.228,2.903 0.103,3.359 0.103,3.939 C0.103,7.628 4.04,16 6.82,16 C8.103,16 10.27,13.886 12.053,11.026 C11.815,11.096 11.626,11.121 11.379,11.121 Z M15.896,1.865 C15.896,4.808 14.031,8.373 13.078,8.373 C11.378,8.373 9.264,3.648 9.264,1.285 C9.264,0.207 9.68,0 10.756,0 C13.326,0 15.896,0.415 15.896,1.865 Z"/></g></svg>