<?xml version="1.0" encoding="utf-8"?>
<!-- Generator: Adobe Illustrator 24.3.0, SVG Export Plug-In . SVG Version: 6.00 Build 0)  -->
<svg version="1.1" id="Ebene_1" xmlns="http://www.w3.org/2000/svg" xmlns:xlink="http://www.w3.org/1999/xlink" x="0px" y="0px"
	 viewBox="0 0 16 16" style="enable-background:new 0 0 16 16;" xml:space="preserve">
<style type="text/css">
	.st0{fill:#00CFFF;}
</style>
<path class="st0" d="M12.1,11c-0.2,0.1-0.4,0.1-0.7,0.1c-2,0-5-7.1-5-9.5c0-0.9,0.2-1.2,0.5-1.4C4.4,0.5,1.4,1.5,0.4,2.6
	C0.2,2.9,0.1,3.4,0.1,3.9C0.1,7.6,4,16,6.8,16C8.1,16,10.3,13.9,12.1,11 M10.8,0c2.6,0,5.1,0.4,5.1,1.9c0,2.9-1.9,6.5-2.8,6.5
	c-1.7,0-3.8-4.7-3.8-7.1C9.3,0.2,9.7,0,10.8,0"/>
</svg>
